# 3ds Max Wavefront OBJ Exporter v0.97b - (c)2007 guruware
# File Created: 22.09.2015 23:37:45

mtllib 3d-model.mtl

#
# object Group_007
#

v  1182.6007 901.9340 -5.0000
v  1182.6007 114.3038 -5.0000
v  2167.2900 114.3038 -5.0000
v  2167.2900 901.9340 -5.0000
v  1164.9454 896.6486 -15.0000
v  1164.9454 96.6486 -15.0000
v  2244.9453 96.6486 -15.0000
v  2244.9453 896.6486 -15.0000
v  1164.9454 96.6486 -25.0000
v  2244.9453 96.6486 -25.0000
v  1164.9454 896.6486 -25.0000
v  2244.9453 896.6486 -25.0000
v  2244.9453 96.6486 5.0000
v  2244.9453 896.6486 5.0000
v  2167.2900 114.3038 5.0000
v  1182.6007 114.3038 5.0000
v  2167.2900 878.9933 5.0000
v  1104.9454 956.6486 5.0000
v  1182.6007 878.9933 5.0000
v  1104.9454 36.6486 5.0000
v  2244.9453 36.6486 5.0000
v  2244.9453 956.6486 5.0000
v  2281.5938 0.0000 -25.0000
v  1068.2969 0.0000 -25.0000
v  1068.2969 993.2971 -25.0000
v  2281.5938 993.2971 -25.0000
v  1104.9454 956.6486 25.0000
v  1104.9454 36.6486 25.0000
v  2244.9453 36.6486 25.0000
v  2244.9453 956.6486 25.0000
v  2281.5938 993.2971 25.0000
v  2281.5938 0.0000 25.0000
v  1068.2969 993.2971 25.0000
v  1068.2969 0.0000 25.0000
# 34 vertices

vn 0.0000 0.0000 1.0000
vn -0.0000 1.0000 -0.0000
vn 0.0000 0.0000 -1.0000
vn -1.0000 -0.0000 -0.0000
vn 0.0000 -1.0000 -0.0000
vn 1.0000 0.0000 -0.0000
vn 0.0000 -0.3996 -0.9167
# 7 vertex normals

vt -0.0000 1.0354 0.0000
vt 0.0000 0.0000 0.0000
vt 1.0000 0.0000 0.0000
vt 1.0000 1.0354 0.0000
# 4 texture coords

g Group_007
usemtl wire_143224087
s off
f 1/1/1 2/2/1 3/3/1 4/4/1 
f 5/2/1 6/2/1 7/2/1 8/2/1 
f 9/2/2 6/2/2 7/2/2 10/2/2 
f 10/2/3 9/2/3 11/2/3 12/2/3 
f 13/2/4 14/2/4 8/2/4 7/2/4 
f 5/2/5 11/2/5 12/2/5 8/2/5 
f 7/2/4 8/2/4 12/2/4 10/2/4 
f 15/2/1 16/2/1 13/2/1 14/2/1 
f 17/2/1 15/2/1 14/2/1 18/2/1 
f 19/2/1 17/2/1 18/2/1 16/2/1 
f 16/2/1 18/2/1 20/2/1 21/2/1 
f 16/2/1 21/2/1 13/2/1 
f 18/2/1 14/2/1 22/2/1 
f 9/2/3 23/2/3 24/2/3 25/2/3 
f 11/2/3 9/2/3 25/2/3 12/2/3 
f 12/2/3 25/2/3 26/2/3 10/2/3 
f 10/2/3 26/2/3 23/2/3 9/2/3 
f 5/2/6 6/2/6 9/2/6 11/2/6 
f 15/2/4 17/2/4 4/2/4 3/2/4 
f 19/2/6 16/2/6 2/2/6 1/2/6 
f 2/2/2 16/2/2 15/2/2 3/2/2 
f 17/2/7 19/2/7 1/2/7 4/2/7 
f 27/2/6 28/2/6 20/2/6 18/2/6 
f 29/2/4 30/2/4 22/2/4 21/2/4 
f 21/2/4 22/2/4 14/2/4 13/2/4 
f 27/2/5 18/2/5 22/2/5 30/2/5 
f 31/2/6 32/2/6 23/2/6 26/2/6 
f 29/2/1 28/2/1 32/2/1 31/2/1 
f 30/2/1 29/2/1 31/2/1 33/2/1 
f 27/2/1 30/2/1 33/2/1 28/2/1 
f 28/2/1 33/2/1 34/2/1 32/2/1 
f 25/2/2 33/2/2 31/2/2 26/2/2 
f 20/2/2 28/2/2 29/2/2 21/2/2 
f 34/2/5 24/2/5 23/2/5 32/2/5 
f 34/2/4 33/2/4 25/2/4 24/2/4 
# 33 polygons - 2 triangles

#
# object Group_005
#

v  -194.9999 0.0000 25.0000
v  -194.9999 993.2971 25.0000
v  -194.9999 993.2971 -25.0000
v  -194.9999 0.0000 -25.0000
v  -158.3513 956.6486 25.0000
v  -158.3513 36.6486 25.0000
v  -158.3513 36.6486 5.0000
v  -158.3513 956.6486 5.0000
v  981.6487 36.6486 25.0000
v  981.6487 956.6486 25.0000
v  981.6487 956.6486 5.0000
v  981.6487 36.6486 5.0000
v  981.6487 896.6486 5.0000
v  981.6487 96.6486 5.0000
v  1018.2971 993.2971 25.0000
v  1018.2971 0.0000 25.0000
v  1018.2971 0.0000 -25.0000
v  1018.2971 993.2971 -25.0000
v  981.6487 96.6486 -25.0000
v  -98.3513 96.6486 -25.0000
v  -98.3513 896.6486 -25.0000
v  981.6487 896.6486 -25.0000
v  981.6487 896.6486 -15.0000
v  981.6487 96.6486 -15.0000
v  903.9934 114.3038 5.0000
v  -80.6961 114.3038 5.0000
v  903.9934 878.9933 5.0000
v  -80.6961 878.9933 5.0000
v  -80.6961 878.9933 -5.0000
v  903.9934 878.9933 -5.0000
v  -80.6961 114.3038 -5.0000
v  903.9934 114.3038 -5.0000
v  -98.3513 896.6486 -15.0000
v  -98.3513 96.6486 -15.0000
# 34 vertices

vn -1.0000 -0.0000 -0.0000
vn 1.0000 0.0000 -0.0000
vn 0.0000 -1.0000 -0.0000
vn 0.0000 0.0000 1.0000
vn -0.0000 1.0000 -0.0000
vn 0.0000 0.0000 -1.0000
# 6 vertex normals

vt 0.0000 0.0000 0.0000
vt -0.0000 1.0000 0.0000
vt 0.9658 0.0000 0.0000
vt 0.9658 1.0000 0.0000
# 4 texture coords

g Group_005
usemtl wire_087224198
s off
f 35/5/8 36/5/8 37/5/8 38/5/8 
f 39/5/9 40/5/9 41/5/9 42/5/9 
f 43/5/8 44/5/8 45/5/8 46/5/8 
f 46/5/8 45/5/8 47/5/8 48/5/8 
f 39/5/10 42/5/10 45/5/10 44/5/10 
f 49/5/9 50/5/9 51/5/9 52/5/9 
f 43/5/11 40/5/11 50/5/11 49/5/11 
f 44/5/11 43/5/11 49/5/11 36/5/11 
f 39/5/11 44/5/11 36/5/11 40/5/11 
f 40/5/11 36/5/11 35/5/11 50/5/11 
f 37/5/12 36/5/12 49/5/12 52/5/12 
f 35/5/10 38/5/10 51/5/10 50/5/10 
f 41/5/12 40/5/12 43/5/12 46/5/12 
f 53/5/13 54/5/13 55/5/13 56/5/13 
f 48/5/8 47/5/8 57/5/8 58/5/8 
f 59/5/11 60/5/11 48/5/11 47/5/11 
f 61/5/11 59/5/11 47/5/11 42/5/11 
f 62/5/11 61/5/11 42/5/11 60/5/11 
f 60/5/11 42/5/11 41/5/11 46/5/11 
f 60/5/11 46/5/11 48/5/11 
f 42/5/11 47/5/11 45/5/11 
f 54/5/13 51/5/13 38/5/13 37/5/13 
f 55/5/13 54/5/13 37/5/13 56/5/13 
f 56/5/13 37/5/13 52/5/13 53/5/13 
f 53/5/13 52/5/13 51/5/13 54/5/13 
f 62/5/10 63/5/10 64/5/10 61/5/10 
f 62/5/9 60/5/9 65/5/9 63/5/9 
f 59/5/8 61/5/8 64/5/8 66/5/8 
f 67/5/9 68/5/9 54/5/9 55/5/9 
f 54/5/12 68/5/12 58/5/12 53/5/12 
f 65/5/12 60/5/12 59/5/12 66/5/12 
f 67/5/11 68/5/11 58/5/11 57/5/11 
f 67/5/10 55/5/10 56/5/10 57/5/10 
f 58/5/8 57/5/8 56/5/8 53/5/8 
f 63/6/11 65/5/11 66/7/11 64/8/11 
# 33 polygons - 2 triangles

#
# object Group_003
#

v  -1238.2970 0.0000 25.0000
v  -1238.2970 1213.2970 25.0000
v  -1238.2970 1213.2970 -25.0000
v  -1238.2970 0.0000 -25.0000
v  -1201.6484 1176.6486 25.0000
v  -1201.6484 1176.6486 5.0000
v  -1141.6484 1176.6486 5.0000
v  -281.6484 1176.6486 25.0000
v  -341.6484 1176.6486 5.0000
v  -281.6484 1176.6486 5.0000
v  -244.9999 1213.2970 25.0000
v  -244.9999 1213.2970 -25.0000
v  -244.9999 0.0000 -25.0000
v  -244.9999 0.0000 25.0000
v  -281.6484 36.6486 25.0000
v  -281.6484 36.6486 5.0000
v  -1201.6484 36.6486 5.0000
v  -1201.6484 36.6486 25.0000
v  -1123.9932 114.3038 -5.0000
v  -1123.9932 114.3038 5.0000
v  -359.3036 114.3038 5.0000
v  -359.3036 114.3038 -5.0000
v  -359.3036 1098.9933 5.0000
v  -359.3036 1098.9933 -5.0000
v  -1141.6484 96.6486 -25.0000
v  -1141.6484 96.6486 -15.0000
v  -341.6484 96.6486 -15.0000
v  -341.6484 96.6486 -25.0000
v  -1123.9932 1098.9933 5.0000
v  -341.6484 1176.6486 -15.0000
v  -341.6484 1176.6486 -25.0000
v  -1141.6484 1176.6486 -25.0000
v  -1141.6484 1176.6486 -15.0000
v  -1123.9932 1098.9933 -5.0000
# 34 vertices

vn -1.0000 0.0000 -0.0000
vn 0.0000 -1.0000 -0.0000
vn 0.0000 1.0000 -0.0000
vn 1.0000 0.0000 -0.0000
vn 0.0000 0.0000 1.0000
vn 0.0000 0.0000 -1.0000
# 6 vertex normals

vt 0.0000 0.0000 0.0000
vt 1.0000 0.0000 0.0000
vt 1.0000 0.9658 0.0000
vt 0.0000 0.9658 0.0000
# 4 texture coords

g Group_003
usemtl wire_028089177
s off
f 69/9/14 70/9/14 71/9/14 72/9/14 
f 73/9/15 74/9/15 75/9/15 76/9/15 
f 76/9/15 75/9/15 77/9/15 78/9/15 
f 71/9/16 70/9/16 79/9/16 80/9/16 
f 69/9/15 72/9/15 81/9/15 82/9/15 
f 79/9/17 82/9/17 81/9/17 80/9/17 
f 83/9/14 76/9/14 78/9/14 84/9/14 
f 85/9/16 86/9/16 83/9/16 84/9/16 
f 73/9/17 86/9/17 85/9/17 74/9/17 
f 83/9/18 69/9/18 82/9/18 79/9/18 
f 76/9/18 83/9/18 79/9/18 73/9/18 
f 73/9/18 79/9/18 70/9/18 86/9/18 
f 86/9/18 70/9/18 69/9/18 83/9/18 
f 87/9/16 88/9/16 89/9/16 90/9/16 
f 89/9/14 91/9/14 92/9/14 90/9/14 
f 93/9/16 94/9/16 95/9/16 96/9/16 
f 89/9/18 85/9/18 84/9/18 78/9/18 
f 91/9/18 89/9/18 78/9/18 97/9/18 
f 97/9/18 78/9/18 74/9/18 88/9/18 
f 88/9/18 74/9/18 85/9/18 89/9/18 
f 74/9/18 78/9/18 77/9/18 75/9/18 
f 95/9/14 98/9/14 99/9/14 96/9/14 
f 96/9/19 93/9/19 100/9/19 99/9/19 
f 75/9/15 101/9/15 98/9/15 77/9/15 
f 101/9/17 94/9/17 93/9/17 100/9/17 
f 101/9/15 100/9/15 99/9/15 98/9/15 
f 97/9/15 102/9/15 92/9/15 91/9/15 
f 94/9/18 95/9/18 98/9/18 101/9/18 
f 93/9/19 81/9/19 72/9/19 71/9/19 
f 100/9/19 93/9/19 71/9/19 99/9/19 
f 99/9/19 71/9/19 80/9/19 96/9/19 
f 96/9/19 80/9/19 81/9/19 93/9/19 
f 97/9/17 88/9/17 87/9/17 102/9/17 
f 87/9/18 90/10/18 92/11/18 102/12/18 
# 34 polygons

#
# object Group_001
#

v  -2167.2905 114.3038 -5.0000
v  -2167.2905 114.3038 5.0000
v  -1402.6008 114.3038 5.0000
v  -1402.6008 114.3038 -5.0000
v  -2167.2905 1098.9933 5.0000
v  -2167.2905 1098.9933 -5.0000
v  -1402.6008 1098.9933 -5.0000
v  -1402.6008 1098.9933 5.0000
v  -1384.9457 96.6486 -25.0000
v  -2184.9458 96.6486 -25.0000
v  -2184.9458 1176.6486 -25.0000
v  -1384.9457 1176.6486 -25.0000
v  -2184.9458 1176.6486 5.0000
v  -2184.9458 1176.6486 -15.0000
v  -1384.9457 1176.6486 -15.0000
v  -1384.9457 1176.6486 5.0000
v  -2184.9458 96.6486 -15.0000
v  -1384.9457 96.6486 -15.0000
v  -2244.9458 36.6486 5.0000
v  -1324.9457 36.6486 5.0000
v  -1324.9457 1176.6486 5.0000
v  -2244.9458 1176.6486 5.0000
v  -1288.2971 0.0000 -25.0000
v  -2281.5942 0.0000 -25.0000
v  -2281.5942 1213.2970 -25.0000
v  -1288.2971 1213.2970 -25.0000
v  -2244.9458 36.6486 25.0000
v  -1324.9457 36.6486 25.0000
v  -1288.2971 1213.2970 25.0000
v  -1288.2971 0.0000 25.0000
v  -1324.9457 1176.6486 25.0000
v  -2281.5942 0.0000 25.0000
v  -2244.9458 1176.6486 25.0000
v  -2281.5942 1213.2970 25.0000
# 34 vertices

vn 0.0000 1.0000 -0.0000
vn 0.0000 -1.0000 0.0000
vn 0.0000 0.0000 -1.0000
vn 1.0000 0.0000 -0.0000
vn -1.0000 0.0000 -0.0000
vn 0.0000 0.0000 1.0000
vn 0.0000 -1.0000 -0.0000
# 7 vertex normals

vt 0.0000 0.0000 0.0000
vt 0.2664 -0.0024 0.0000
vt 0.8455 -0.0024 0.0000
vt 0.8455 0.9919 0.0000
vt 0.2664 0.9919 0.0000
# 5 texture coords

g Group_001
usemtl wire_028089177
s off
f 103/13/20 104/13/20 105/13/20 106/13/20 
f 107/13/21 108/13/21 109/13/21 110/13/21 
f 111/13/22 112/13/22 113/13/22 114/13/22 
f 115/13/21 116/13/21 117/13/21 118/13/21 
f 116/13/23 119/13/23 112/13/23 113/13/23 
f 112/13/20 119/13/20 120/13/20 111/13/20 
f 120/13/24 117/13/24 114/13/24 111/13/24 
f 107/13/23 104/13/23 103/13/23 108/13/23 
f 116/13/21 113/13/21 114/13/21 117/13/21 
f 105/13/25 121/13/25 122/13/25 123/13/25 
f 110/13/25 105/13/25 123/13/25 107/13/25 
f 107/13/25 123/13/25 124/13/25 104/13/25 
f 104/13/25 124/13/25 121/13/25 105/13/25 
f 124/13/25 123/13/25 118/13/25 115/13/25 
f 112/13/22 125/13/22 126/13/22 127/13/22 
f 113/13/22 112/13/22 127/13/22 114/13/22 
f 114/13/22 127/13/22 128/13/22 111/13/22 
f 111/13/22 128/13/22 125/13/22 112/13/22 
f 119/13/25 120/13/25 117/13/25 116/13/25 
f 105/13/24 110/13/24 109/13/24 106/13/24 
f 121/13/20 129/13/20 130/13/20 122/13/20 
f 131/13/23 132/13/23 125/13/23 128/13/23 
f 130/13/24 133/13/24 123/13/24 122/13/24 
f 134/13/26 126/13/26 125/13/26 132/13/26 
f 135/13/26 124/13/26 115/13/26 133/13/26 
f 133/13/26 115/13/26 118/13/26 123/13/26 
f 135/13/23 129/13/23 121/13/23 124/13/23 
f 127/13/20 136/13/20 131/13/20 128/13/20 
f 130/13/25 134/13/25 132/13/25 131/13/25 
f 133/13/25 130/13/25 131/13/25 135/13/25 
f 135/13/25 131/13/25 136/13/25 129/13/25 
f 129/13/25 136/13/25 134/13/25 130/13/25 
f 134/13/24 136/13/24 127/13/24 126/13/24 
f 103/14/25 106/15/25 109/16/25 108/17/25 
# 34 polygons

